<svg width="1482" height="250" viewBox="0 0 1482 250" fill="none" xmlns="http://www.w3.org/2000/svg">
<g clip-path="url(#clip0)">
<path d="M124.396 249.898V201.298C175.922 201.298 215.668 150.497 195.802 96.7386C192.187 86.7606 186.424 77.699 178.92 70.1948C171.416 62.6906 162.354 56.9272 152.376 53.3124C140.795 48.9578 128.334 47.4666 116.052 48.9658C103.771 50.4651 92.0342 54.9103 81.8411 61.9229C71.648 68.9356 63.3008 78.3079 57.5103 89.2416C51.7199 100.175 48.6577 112.347 48.5847 124.719H0C0 43.7196 78.7672 -20.3406 164.881 6.17623C183.386 11.989 200.213 22.1883 213.928 35.9055C227.642 49.6227 237.838 66.4514 243.648 84.9582C270.15 171.116 206.104 249.898 124.396 249.898Z" fill="#F9FFF5"/>
<path d="M125.135 201.299H76.5501V153.438H125.135V201.299ZM76.5501 238.857H39.7458V201.299H76.5501V238.857ZM39.7458 201.299H8.86853V170.377H39.7458V201.299ZM443.869 72.4392C429.887 62.8612 411.485 57.6583 390.865 57.6583H345.976V201.24H390.88C411.494 201.24 429.162 196.086 443.884 185.779C451.925 179.929 458.274 172.055 462.286 162.957C466.721 153.379 468.908 141.599 468.908 129.079C468.908 116.56 466.706 104.78 462.286 95.9408C457.852 84.9586 451.969 77.5977 443.869 72.4392V72.4392ZM372.478 82.0172H386.46C401.921 82.0172 415.165 84.9734 425.467 91.5952C436.509 98.217 441.726 110.81 441.726 129.153C441.726 147.496 435.814 160.814 425.467 168.175C415.904 174.087 403.385 177.753 387.185 177.753H372.478V82.0172ZM500.554 55.5151C498.508 55.4604 496.473 55.8257 494.574 56.5884C492.675 57.3511 490.952 58.4949 489.513 59.9494C487.835 61.2456 486.492 62.924 485.595 64.8446C484.697 66.7652 484.272 68.8724 484.354 70.9907C484.354 75.0911 485.983 79.0236 488.883 81.9231C491.782 84.8226 495.714 86.4515 499.815 86.4515C503.915 86.4515 507.848 84.8226 510.747 81.9231C513.647 79.0236 515.276 75.0911 515.276 70.9907C515.33 68.945 514.964 66.9101 514.201 65.0111C513.439 63.1122 512.295 61.3896 510.841 59.9494C508.639 56.9932 504.929 55.5151 500.495 55.5151H500.554ZM487.192 99.6951H512.955V200.575H487.296V99.6951H487.192ZM605.069 108.564C597.679 101.942 588.811 97.5223 579.306 97.5223C572.819 97.3794 566.376 98.6242 560.408 101.173C554.441 103.722 549.087 107.517 544.704 112.303C535.51 122.042 530.492 134.992 530.722 148.383C530.722 162.381 535.156 174.885 544.025 184.463C552.893 194.041 564.629 198.461 578.627 198.461C587.634 198.602 596.434 195.754 603.651 190.361V192.563C603.651 200.663 601.448 207.344 597.029 211.778C592.609 216.213 586.682 218.4 578.627 218.4C566.802 218.4 559.485 213.966 550.661 201.461L532.924 218.4L533.663 219.139C537.344 224.298 543.226 229.486 550.587 234.6C557.948 239.714 567.511 241.99 578.553 241.99C594.013 241.99 605.794 237.556 614.618 227.993C623.442 218.43 628.601 206.635 628.601 191.174V99.6951H603.606V108.564H605.084H605.069ZM598.462 168.204C594.028 173.363 588.116 175.595 580.725 175.595C573.335 175.595 567.423 173.393 562.988 168.204C558.554 163.016 556.367 156.38 556.367 148.324C556.367 140.269 558.717 133.558 563.151 128.4C567.585 123.241 573.498 121.009 580.888 121.009C588.278 121.009 594.191 123.211 598.625 128.4C603.059 133.588 605.247 140.224 605.247 148.28C605.247 156.335 603.045 163.061 598.625 168.16L598.462 168.204ZM652.353 99.6803H678.117V200.56H652.191V99.6951L652.353 99.6803ZM664.71 55.5151C662.666 55.4644 660.633 55.8297 658.734 56.5887C656.836 57.3477 655.111 58.4847 653.665 59.9306C652.219 61.3765 651.082 63.1011 650.323 64.9998C649.564 66.8986 649.199 68.9317 649.249 70.9759C649.249 75.0763 650.878 79.0089 653.778 81.9083C656.677 84.8078 660.61 86.4367 664.71 86.4367C668.811 86.4367 672.743 84.8078 675.643 81.9083C678.542 79.0089 680.171 75.0763 680.171 70.9759C680.222 68.9304 679.856 66.896 679.096 64.9963C678.336 63.0966 677.198 61.3712 675.75 59.9251C674.303 58.479 672.577 57.3424 670.676 56.5842C668.776 55.8261 666.741 55.4624 664.696 55.5151H664.71ZM733.131 72.4392H708.136V99.6951H693.356V122.517H708.136V164.494C708.136 177.797 711.093 187.316 716.236 192.475C721.38 197.633 731.017 200.575 743.478 200.575C747.664 200.696 751.854 200.449 755.997 199.835H757.475V176.999L748.606 177.738C742.694 177.738 738.26 176.999 736.782 174.782C734.579 172.58 733.826 168.16 733.826 161.479V123.256H757.386V100.419H733.899L733.131 72.4392ZM875.929 57.6583H901.692V201.24H875.958V57.747L875.929 57.6583ZM1158.63 165.248C1154.86 169.602 1150.67 173.563 1146.11 177.073C1142.1 179.504 1137.49 180.778 1132.81 180.753C1129.35 180.723 1125.94 179.982 1122.79 178.576C1119.64 177.169 1116.81 175.128 1114.48 172.58C1109.32 166.667 1107.09 160.06 1107.09 151.221C1107.09 142.382 1109.29 135.76 1114.48 129.863C1116.71 127.186 1119.54 125.062 1122.73 123.657C1125.92 122.252 1129.4 121.604 1132.88 121.763C1140.98 121.763 1149.8 126.921 1157.16 135.76L1174.09 119.501C1163.05 105.504 1149.06 98.8822 1132.13 98.8822C1118.14 98.8822 1106.36 104.041 1096.06 114.343C1086.42 124.453 1081.11 137.932 1081.28 151.901C1081.28 166.682 1086.44 179.881 1096.06 189.459C1100.64 194.438 1106.22 198.39 1112.44 201.054C1118.65 203.719 1125.36 205.037 1132.13 204.92C1150.53 204.92 1165.25 196.82 1175.55 182.098L1158.63 165.16V165.248ZM1262.42 114.358C1258.55 109.255 1253.47 105.192 1247.64 102.533C1240.96 99.4389 1233.65 97.9217 1226.29 98.0988C1212.31 98.0988 1200.53 103.257 1191.69 113.56C1183.33 124.268 1178.91 137.532 1179.17 151.118C1179.17 166.579 1183.61 179.098 1193.16 188.676C1202.7 198.254 1214.5 203.457 1229.96 203.457C1246.88 203.457 1260.88 196.835 1271.92 182.837L1272.66 182.098L1255.74 165.839C1254.26 168.042 1252.06 169.52 1249.83 171.752C1247.74 173.953 1245.22 175.708 1242.44 176.91C1238.61 179.008 1234.28 180.03 1229.92 179.867C1223.5 179.959 1217.25 177.875 1212.18 173.954C1207.74 170.274 1205.56 165.086 1204.79 158.493H1272.51V148.915C1272.68 142.386 1271.68 135.879 1269.56 129.7C1268.48 123.992 1265.93 118.662 1262.17 114.239L1262.42 114.358ZM1207.21 137.978C1208.34 133.521 1210.62 129.442 1213.83 126.153C1215.57 124.419 1217.65 123.065 1219.94 122.177C1222.23 121.289 1224.68 120.886 1227.14 120.994C1233.05 120.994 1238.18 122.472 1241.12 126.153C1244.08 129.109 1245.55 133.543 1246.28 137.978H1207.21V137.978ZM1360.33 107.78C1352.94 101.158 1341.93 98.2023 1328.68 98.2023C1320.58 98.4317 1312.6 100.187 1305.15 103.376C1298.53 107.056 1291.85 112.244 1288.23 119.635L1304.49 135.095C1311.11 124.054 1318.47 120.314 1328.77 120.314C1333.59 120.187 1338.3 121.756 1342.07 124.749C1343.75 126.045 1345.09 127.723 1345.99 129.644C1346.89 131.564 1347.31 133.672 1347.23 135.79V140.949C1341.3 138.949 1335.08 137.95 1328.83 137.992C1316.31 137.992 1306.01 140.949 1297.91 146.861C1289.81 152.773 1286.08 161.642 1286.08 171.9C1286.08 181.478 1289.04 188.839 1295.65 194.721C1302.25 200.604 1310.43 202.821 1319.93 202.821C1329.44 202.821 1338.33 199.141 1347.17 192.475V200.575H1372.2V135.775C1372.2 123.951 1368.52 114.417 1360.37 107.795L1360.33 107.78ZM1315.47 162.277C1318.42 160.075 1322.09 159.321 1327.29 159.321C1333.83 159.541 1340.28 160.783 1346.43 163.002V172.58C1340.34 177.94 1332.46 180.83 1324.35 180.679C1319.92 180.679 1316.25 179.94 1314 177.723C1311.76 175.506 1310.32 173.289 1310.32 170.333C1310.58 168.702 1311.18 167.141 1312.06 165.748C1312.95 164.355 1314.11 163.159 1315.48 162.233L1315.47 162.277ZM1470 109.258C1462.61 101.158 1453.08 97.4336 1440.56 97.4336C1430.25 97.4336 1422.16 100.39 1416.27 106.302V100.39H1391.23V201.269H1417V145.338C1417 137.948 1418.48 131.341 1422.16 126.936C1423.96 124.786 1426.22 123.073 1428.78 121.925C1431.34 120.778 1434.13 120.228 1436.94 120.314C1439.46 120.191 1441.98 120.662 1444.29 121.689C1446.6 122.716 1448.64 124.27 1450.24 126.227C1453.7 130.933 1455.51 136.647 1455.4 142.486V201.387H1481.04V142.397C1480.3 128.404 1476.62 117.358 1470 109.258V109.258ZM844.313 107.78C836.922 101.158 825.91 98.2023 812.667 98.2023C804.558 98.4234 796.565 100.174 789.106 103.361C782.484 107.041 775.803 112.229 772.182 119.62L788.441 135.081C795.063 124.039 802.424 120.3 812.726 120.3C817.543 120.172 822.252 121.742 826.029 124.734C827.706 126.03 829.049 127.708 829.947 129.629C830.844 131.55 831.269 133.657 831.187 135.775V140.934C825.26 138.934 819.041 137.935 812.785 137.978C800.271 137.978 789.963 140.934 781.863 146.846C773.763 152.758 770.039 161.627 770.039 171.885C770.039 181.463 772.995 188.824 779.602 194.707C786.209 200.589 794.383 202.806 803.887 202.806C813.391 202.806 822.289 199.126 831.128 192.46V200.56H856.152V135.775C856.152 123.951 851.718 114.417 844.327 107.795L844.313 107.78ZM798.684 162.277C801.64 160.075 805.306 159.321 810.509 159.321C817.042 159.541 823.501 160.783 829.65 163.002V172.58C823.558 177.94 815.681 180.83 807.567 180.679C803.133 180.679 799.467 179.94 797.221 177.723C794.974 175.506 793.54 173.289 793.54 170.333C794.64 167.285 796.402 164.519 798.699 162.233L798.684 162.277ZM993.806 203.472C979.241 203.477 965.001 199.164 952.887 191.076C940.773 182.988 931.33 171.489 925.752 158.034C920.174 144.579 918.712 129.772 921.55 115.485C924.388 101.199 931.399 88.0751 941.696 77.7736C951.993 67.4722 965.114 60.4559 979.4 57.6121C993.685 54.7684 1008.49 56.2249 1021.95 61.7976C1035.41 67.3702 1046.91 76.8086 1055 88.919C1063.1 101.029 1067.41 115.268 1067.41 129.833C1067.34 149.337 1059.57 168.022 1045.78 181.816C1031.99 195.609 1013.31 203.394 993.806 203.472V203.472ZM993.806 81.2486C984.338 81.234 975.079 84.0278 967.199 89.2765C959.32 94.5253 953.174 101.993 949.539 110.736C945.904 119.478 944.944 129.102 946.78 138.39C948.616 147.678 953.166 156.213 959.853 162.915C966.541 169.617 975.066 174.185 984.35 176.041C993.634 177.897 1003.26 176.958 1012.01 173.342C1020.76 169.726 1028.24 163.596 1033.51 155.728C1038.77 147.86 1041.59 138.606 1041.59 129.139C1041.61 122.851 1040.38 116.622 1037.98 110.81C1035.58 104.999 1032.06 99.7178 1027.61 95.271C1023.16 90.8242 1017.89 87.299 1012.07 84.8978C1006.26 82.4965 1000.03 81.2665 993.747 81.2782" fill="#F9FFF5"/>
</g>
<defs>
<clipPath id="clip0">
<rect width="1481.04" height="250" fill="white"/>
</clipPath>
</defs>
</svg>
