<svg width="1411" height="250" viewBox="0 0 1411 250" fill="none" xmlns="http://www.w3.org/2000/svg">
<path d="M296 129.5C296 181.69 253.339 224 200.71 224C176.266 224 153.972 214.87 137.103 199.866C164.126 187.8 182.939 160.863 182.939 129.568C182.939 98.2322 164.079 71.2671 137 59.2246C153.883 44.1655 176.216 35 200.71 35C253.339 35 296 77.3088 296 129.5Z" fill="#F9FFF5"/>
<path d="M163.233 54.1913C104.906 10.3919 20.7343 45.7557 11.7253 117.849C7.53877 151.354 21.6832 184.529 48.8171 204.848C107.176 248.608 191.324 213.183 200.283 141.083C204.44 107.62 190.317 74.4985 163.233 54.1903V54.1913ZM152.67 68.0975C200.255 103.778 191.123 177.262 136.233 200.37C110.761 211.095 81.4631 207.501 59.3797 190.941C11.7968 155.259 20.9269 81.7752 75.8166 58.6678C101.289 47.9447 130.587 51.538 152.67 68.0975Z" fill="#F9FFF5"/>
<path d="M404.048 60.4136C417.028 60.4136 428.091 63.7615 437.239 70.4612C446.386 77.1618 452.676 86.0423 456.11 97.1026V62.035H472.304V189.684H456.11V154.619C452.676 165.689 446.386 174.574 437.239 181.273C428.091 187.974 417.028 191.324 404.048 191.324C392.477 191.324 382.117 188.673 372.969 183.376C363.822 178.079 356.708 170.48 351.625 160.579C346.543 150.679 344 139.106 344 125.86C344 112.46 346.543 100.811 351.625 90.9103C356.708 81.0199 363.783 73.4655 372.853 68.2425C381.923 63.0213 392.321 60.4136 404.048 60.4136ZM408.269 74.8995C393.883 74.8995 382.35 79.4572 373.667 88.5762C364.996 97.6942 360.659 110.122 360.659 125.86C360.659 141.6 364.996 154.029 373.667 163.147C382.35 172.263 393.883 176.821 408.269 176.821C417.337 176.821 425.507 174.719 432.773 170.512C440.046 166.308 445.755 160.346 449.898 152.631C454.04 144.915 456.11 135.993 456.11 125.86C456.11 115.728 454.04 106.81 449.898 99.1027C445.755 91.3902 440.046 85.4223 432.773 81.2101C425.507 77.0027 417.337 74.8995 408.269 74.8995ZM576.438 60.4136C588.165 60.4136 598.525 63.0213 607.516 68.2425C616.508 73.4655 623.547 81.0199 628.629 90.9103C633.711 100.811 636.252 112.46 636.252 125.86C636.252 139.106 633.711 150.679 628.629 160.579C623.547 170.48 616.467 178.079 607.401 183.376C598.332 188.673 588.009 191.324 576.438 191.324C563.302 191.324 552.201 187.974 543.131 181.273C534.062 174.574 527.809 165.689 524.374 154.619V250H507.947V62.035H524.374V97.1026C527.809 86.0423 534.062 77.1618 543.131 70.4612C552.201 63.7615 563.302 60.4136 576.438 60.4136ZM571.984 74.8995C562.914 74.8995 554.742 77.0027 547.467 81.2101C540.201 85.4223 534.536 91.3902 530.472 99.1027C526.408 106.81 524.374 115.728 524.374 125.86C524.374 135.993 526.408 144.915 530.472 152.631C534.536 160.346 540.201 166.308 547.467 170.512C554.742 174.719 562.914 176.821 571.984 176.821C586.524 176.821 598.097 172.263 606.701 163.147C615.297 154.029 619.593 141.6 619.593 125.86C619.593 110.122 615.297 97.6942 606.701 88.5762C598.097 79.4572 586.524 74.8995 571.984 74.8995ZM734.286 60.4136C746.016 60.4136 756.376 63.0213 765.366 68.2425C774.359 73.4655 781.398 81.0199 786.481 90.9103C791.561 100.811 794.104 112.46 794.104 125.86C794.104 139.106 791.561 150.679 786.481 160.579C781.398 170.48 774.32 178.079 765.251 183.376C756.182 188.673 745.861 191.324 734.286 191.324C721.152 191.324 710.052 187.974 700.984 181.273C691.912 174.574 685.661 165.689 682.227 154.619V250H665.8V62.035H682.227V97.1026C685.661 86.0423 691.912 77.1618 700.984 70.4612C710.052 63.7615 721.152 60.4136 734.286 60.4136ZM729.836 74.8995C720.767 74.8995 712.593 77.0027 705.318 81.2101C698.054 85.4223 692.389 91.3902 688.323 99.1027C684.26 106.81 682.227 115.728 682.227 125.86C682.227 135.993 684.26 144.915 688.323 152.631C692.389 160.346 698.054 166.308 705.318 170.512C712.593 174.719 720.767 176.821 729.836 176.821C744.377 176.821 755.948 172.263 764.552 163.147C773.147 154.029 777.444 141.6 777.444 125.86C777.444 110.122 773.147 97.6942 764.552 88.5762C755.948 79.4572 744.377 74.8995 729.836 74.8995ZM975.876 60.1807H1006.84L971.889 189.684H935.296L907.389 95.4784L878.768 189.684H842.189L807.472 60.1807H840.545L861.658 160.232L890.496 60.1807H925.445L954.532 160.232L975.876 60.1807ZM1056.33 84.9499C1061.17 76.6942 1067.58 70.1886 1075.55 65.4303C1083.54 60.6834 1092.45 58.3113 1102.3 58.3113V93.607H1092.68C1068.45 93.607 1056.33 104.827 1056.33 127.265V189.684H1023.26V60.1807H1056.33V84.9499ZM1116.84 22.9957C1116.84 17.6989 1118.72 13.3769 1122.47 10.0309C1126.23 6.67823 1131.15 5 1137.24 5C1143.35 5 1148.27 6.67823 1152.02 10.0309C1155.78 13.3769 1157.66 17.6989 1157.66 22.9957C1157.66 28.1402 1155.78 32.3892 1152.02 35.7447C1148.27 39.0984 1143.35 40.7766 1137.24 40.7766C1131.15 40.7766 1126.23 39.0984 1122.47 35.7447C1118.72 32.3892 1116.84 28.1402 1116.84 22.9957ZM1120.6 60.1807H1153.67V189.684H1120.6V60.1807ZM1240.22 161.392H1253.11V189.684H1235.75C1221.21 189.684 1210.07 186.181 1202.33 179.171C1194.59 172.151 1190.72 160.464 1190.72 144.104V87.995H1172.66V60.1807H1190.72V28.1449H1223.79V60.1807H1252.88V87.995H1223.79V144.568C1223.79 150.804 1225.04 155.17 1227.54 157.664C1230.05 160.149 1234.27 161.392 1240.22 161.392ZM1399 120.017C1399 123.293 1398.61 127.035 1397.83 131.24H1302.6C1303.07 142.773 1306.2 151.269 1311.99 156.722C1317.77 162.175 1324.96 164.902 1333.57 164.902C1341.23 164.902 1347.6 163.031 1352.67 159.289C1357.75 155.557 1361 150.496 1362.41 144.104H1397.36C1395.64 153.144 1391.97 161.245 1386.34 168.412C1380.71 175.585 1373.47 181.198 1364.65 185.248C1355.81 189.298 1346 191.324 1335.21 191.324C1322.54 191.324 1311.28 188.636 1301.43 183.261C1291.58 177.885 1283.92 170.208 1278.45 160.232C1272.97 150.255 1270.23 138.487 1270.23 124.932C1270.23 111.369 1272.97 99.5637 1278.45 89.5189C1283.92 79.4628 1291.58 71.7845 1301.43 66.4895C1311.28 61.1917 1322.54 58.5423 1335.21 58.5423C1348.02 58.5423 1359.24 61.1917 1368.87 66.4895C1378.48 71.7845 1385.9 79.0719 1391.14 88.3443C1396.38 97.6147 1399 108.172 1399 120.017ZM1365.69 116.755C1366.17 106.148 1363.4 98.1164 1357.37 92.6662C1351.35 87.2112 1343.96 84.4861 1335.21 84.4861C1326.3 84.4861 1318.79 87.2112 1312.69 92.6662C1306.59 98.1164 1303.23 106.148 1302.6 116.755H1365.69Z" fill="#F9FFF5"/>
<path d="M108.096 97.3919C107.984 97.6734 106.533 103.417 104.975 110.233C103.354 117.046 100.787 127.802 99.3386 134.164C96.5471 145.821 94.873 153.479 94.873 154.492C94.873 154.772 96.6042 155 98.7218 155H102.574L104.302 147.227C105.308 143.006 107.542 133.318 109.325 125.717C111.112 118.115 113.285 108.879 114.124 105.161C114.96 101.444 115.798 98.0691 115.966 97.6734C116.133 97.1671 115.183 97 112.281 97C110.105 97 108.207 97.1671 108.096 97.3919ZM78.1328 121.774L73 127.406L74.5085 129.208C75.3432 130.221 77.634 132.756 79.5851 134.841L83.157 138.667H93.3131L88.5125 133.431C85.8885 130.618 83.7128 127.912 83.7128 127.576C83.7128 127.181 85.722 124.649 88.1794 121.945C90.633 119.188 92.6421 116.819 92.6421 116.539C92.6421 116.312 90.5226 116.144 87.9567 116.144H83.3245L78.1328 121.774ZM117.19 116.482C117.19 116.652 118.14 117.719 119.311 118.902C123.666 123.295 126.734 127.013 126.565 127.742C126.456 128.14 124.333 130.785 121.767 133.543L117.137 138.667H122.325L127.514 138.612L132.255 133.374C134.88 130.448 137 127.855 137 127.519C137 127.238 134.768 124.591 131.977 121.607L126.959 116.144H122.101C119.367 116.144 117.19 116.312 117.19 116.482Z" fill="#F9FFF5"/>
</svg>
