<?xml version="1.0" encoding="UTF-8" standalone="no"?>
<svg
   xmlns:dc="http://purl.org/dc/elements/1.1/"
   xmlns:cc="http://creativecommons.org/ns#"
   xmlns:rdf="http://www.w3.org/1999/02/22-rdf-syntax-ns#"
   xmlns:svg="http://www.w3.org/2000/svg"
   xmlns="http://www.w3.org/2000/svg"
   xmlns:sodipodi="http://sodipodi.sourceforge.net/DTD/sodipodi-0.dtd"
   xmlns:inkscape="http://www.inkscape.org/namespaces/inkscape"
   width="593"
   height="70"
   viewBox="0 0 593 250"
   fill="none"
   version="1.1"
   id="svg13"
   sodipodi:docname="logo-intel-ltg.svg"
   inkscape:version="1.0.2 (e86c870879, 2021-01-15)">
  <metadata
     id="metadata17">
    <rdf:RDF>
      <cc:Work
         rdf:about="">
        <dc:format>image/svg+xml</dc:format>
        <dc:type
           rdf:resource="http://purl.org/dc/dcmitype/StillImage" />
      </cc:Work>
    </rdf:RDF>
  </metadata>
  <sodipodi:namedview
     pagecolor="#ffffff"
     bordercolor="#666666"
     borderopacity="1"
     objecttolerance="10"
     gridtolerance="10"
     guidetolerance="10"
     inkscape:pageopacity="0"
     inkscape:pageshadow="2"
     inkscape:window-width="1920"
     inkscape:window-height="1016"
     id="namedview15"
     showgrid="false"
     inkscape:zoom="2.1231029"
     inkscape:cx="243.98253"
     inkscape:cy="53.840349"
     inkscape:window-x="1920"
     inkscape:window-y="27"
     inkscape:window-maximized="1"
     inkscape:current-layer="svg13" />
  <g
     clip-path="url(#clip0)"
     id="g6"
     transform="translate(-758.34058,0.46274161)">
    <path
       d="M 46.6468,3.48633 H 0 V 50.1331 h 46.6468 z"
       fill="#f9fff5"
       id="path2" />
    <path
       d="M 45.4847,246.514 V 78.5193 H 1.328 V 246.514 Z m 293.4923,1.66 v -41.169 c -6.474,0 -11.952,-0.332 -15.936,-0.996 -4.648,-0.664 -8.134,-2.324 -10.458,-4.648 -2.324,-2.324 -3.818,-5.644 -4.648,-9.96 -0.664,-4.15 -0.996,-9.628 -0.996,-16.268 v -58.765 h 32.038 V 78.5193 H 306.939 V 12.9482 H 262.616 V 175.465 c 0,13.778 1.162,25.398 3.486,34.694 2.324,9.131 6.308,16.601 11.786,22.245 5.479,5.644 12.783,9.628 21.581,12.118 8.964,2.49 20.252,3.652 33.698,3.652 z m 253.653,-1.66 V 0 H 548.307 V 246.514 Z M 219.954,94.9535 C 207.669,81.6733 190.405,75.0332 168.493,75.0332 c -10.624,0 -20.253,2.158 -29.051,6.4741 -8.632,4.3161 -16.102,10.2922 -21.912,17.9283 l -2.49,3.1544 V 99.7676 78.5193 H 71.3811 V 246.514 h 43.9909 v -89.475 6.142 c 0,-0.996 0,-1.992 0,-2.988 0.498,-15.771 4.316,-27.391 11.62,-34.861 7.802,-7.968 17.264,-11.952 28.054,-11.952 12.783,0 22.577,3.984 29.051,11.62 6.308,7.636 9.628,18.426 9.628,32.205 v 0.332 88.811 h 44.655 v -95.286 c 0.166,-23.904 -6.142,-42.828 -18.426,-56.1085 z m 305.444,67.2315 c 0,-12.119 -2.158,-23.407 -6.308,-34.031 -4.316,-10.458 -10.292,-19.754 -17.762,-27.722 -7.636,-7.9685 -16.766,-14.1106 -27.39,-18.5927 -10.625,-4.4821 -22.411,-6.6401 -35.193,-6.6401 -12.118,0 -23.572,2.324 -34.197,6.8061 -10.624,4.6481 -19.92,10.7902 -27.722,18.5927 -7.802,7.802 -14.11,17.098 -18.592,27.722 -4.648,10.624 -6.806,22.078 -6.806,34.197 0,12.118 2.158,23.572 6.474,34.196 4.316,10.624 10.458,19.92 18.094,27.723 7.636,7.802 17.098,14.11 28.054,18.592 10.957,4.648 23.075,6.972 36.023,6.972 37.517,0 60.757,-17.098 74.701,-33.035 l -31.872,-24.236 c -6.64,7.968 -22.577,18.758 -42.497,18.758 -12.45,0 -22.742,-2.822 -30.544,-8.632 -7.803,-5.644 -13.115,-13.612 -15.937,-23.406 l -0.498,-1.494 h 131.972 z m -131.64,-15.439 c 0,-12.284 14.111,-33.698 44.489,-33.864 30.379,0 44.655,21.414 44.655,33.698 z"
       fill="#f9fff5"
       id="path4" />
  </g>
  <defs
     id="defs11">
    <clipPath
       id="clip0">
      <rect
         width="592.63"
         height="250"
         fill="white"
         id="rect8" />
    </clipPath>
  </defs>
</svg>
